# xmcd
#
# Track frame offsets:
#	150
#	14761
#	29599
#	46273
#	63785
#	79206
#	95704
#	113496
#	129539
#	146358
#	164057
#	179128
#	196928
#	211832
#	229907
#	247652
#	248326
#	249014
#	249814
#	250503
#	251239
#	251991
#
# Disc length: 3369 seconds
#
# Revision: 0
# Processed by: cddbd v1.5.2PL0 Copyright (c) Steve Scherf et al.
# Submitted via: audiograbber 1.83.01
#
DISCID=2a0d2716
DTITLE=Various Artist - CDX Volume 584 (November 25, 2013)
DYEAR=2013
DGENRE=Country
TTITLE0=Brad Paisley - I Can't Change The World [Radio Edit]
TTITLE1=Bush Hawg - More Than Corn [Radio Edit 1]
TTITLE2=Charlie Worsham - Want Me Too
TTITLE3=Kip Moore - Young Love [Radio Edit]
TTITLE4=Tyler Hammond Band - Little Bit Crazy
TTITLE5=Jordan Anderson - Please Don't
TTITLE6=Rosehill - The Bible And The Gun
TTITLE7=James Robert Webb - Born This Day
TTITLE8=Jeff Stansberry - Christmas Kiss
TTITLE9=Little River Band - Mary's Christmas
TTITLE10=Rich Eckhardt - O Come Emmanuel
TTITLE11=Andrew Heller - Silver Bells
TTITLE12=Lisa Matassa - The Christmas Song
TTITLE13=Branch and Dean - The Dash (Christmas Version) 
TTITLE14=Little River Band - We Three Kings 
TTITLE15=Chris Weaver Band - Hometown Country [Radio Liner]
TTITLE16=Chris Weaver Band - Kickin' Country [Radio Liner]
TTITLE17=Chris Weaver Band - Super Country Hits [Radio Liner]
TTITLE18=Chris Weaver Band - Today's Best Country [Radio Liner]
TTITLE19=Chris Weaver Band - Today's Best Country Music [Radio Liner]
TTITLE20=Chris Weaver Band - Today's Hot Country Music [Radio Liner]
TTITLE21=Chris Weaver Band - Today's Hot New Country- My Single  [Radio Liner]
EXTD=
EXTT0=
EXTT1=
EXTT2=
EXTT3=
EXTT4=
EXTT5=
EXTT6=
EXTT7=
EXTT8=
EXTT9=
EXTT10=
EXTT11=
EXTT12=
EXTT13=
EXTT14=
EXTT15=
EXTT16=
EXTT17=
EXTT18=
EXTT19=
EXTT20=
EXTT21=
PLAYORDER=
